<?xml version="1.0" encoding="UTF-8" standalone="no"?>
<svg
   xmlns:dc="http://purl.org/dc/elements/1.1/"
   xmlns:cc="http://creativecommons.org/ns#"
   xmlns:rdf="http://www.w3.org/1999/02/22-rdf-syntax-ns#"
   xmlns:svg="http://www.w3.org/2000/svg"
   xmlns="http://www.w3.org/2000/svg"
   xmlns:sodipodi="http://sodipodi.sourceforge.net/DTD/sodipodi-0.dtd"
   xmlns:inkscape="http://www.inkscape.org/namespaces/inkscape"
   inkscape:version="1.0 (4035a4fb49, 2020-05-01)"
   height="400"
   width="400"
   sodipodi:docname="logo.svg"
   id="svg82"
   viewBox="0 0 399.99999 400"
   version="1.1">
  <metadata
     id="metadata86">
    <rdf:RDF>
      <cc:Work
         rdf:about="">
        <dc:format>image/svg+xml</dc:format>
        <dc:type
           rdf:resource="http://purl.org/dc/dcmitype/StillImage" />
        <dc:title></dc:title>
      </cc:Work>
    </rdf:RDF>
  </metadata>
  <sodipodi:namedview
     inkscape:current-layer="svg82"
     inkscape:window-maximized="0"
     inkscape:window-y="18"
     inkscape:window-x="3640"
     inkscape:cy="60.389684"
     inkscape:cx="184.37723"
     inkscape:zoom="0.9796369"
     showgrid="false"
     id="namedview84"
     inkscape:window-height="1400"
     inkscape:window-width="1716"
     inkscape:pageshadow="2"
     inkscape:pageopacity="0"
     guidetolerance="10"
     gridtolerance="10"
     objecttolerance="10"
     borderopacity="1"
     bordercolor="#666666"
     pagecolor="#ffffff" />
  <!-- svg-source:excalidraw -->
  <defs
     id="defs4">
    <style
       id="style2">
      @font-face {
        font-family: &quot;Virgil&quot;;
        src: url(&quot;https://excalidraw.com/FG_Virgil.woff2&quot;);
      }
      @font-face {
        font-family: &quot;Cascadia&quot;;
        src: url(&quot;https://excalidraw.com/Cascadia.woff2&quot;);
      }
    </style>
  </defs>
  <g
     transform="translate(0,18)"
     id="g10">
    <g
       id="g8"
       transform="translate(100.3624,20.862798)">
      <path
         id="path6"
         fill="none"
         stroke-width="4"
         stroke="#000000"
         d="M -1.8035495,-1.5383369 C -2.6985375,52.39839 -5.4225016,266.9923 -6.0601343,321.05739 M 2.4128565,3.798255 C 1.1113651,58.364027 -7.1750785,271.84391 -8.8736447,324.17502" />
    </g>
  </g>
  <g
     transform="translate(0,18)"
     id="g16">
    <g
       id="g14"
       transform="translate(296.3624,22.862798)">
      <path
         id="path12"
         fill="none"
         stroke-width="4"
         stroke="#000000"
         d="M -2.4396452,-1.7152942 C -2.7180808,53.021594 -1.6594957,275.18082 -2.3639633,330.9269 M 1.4314517,3.5252352 C 1.0812125,58.601733 -2.8092981,272.21856 -3.1709809,326.4194" />
    </g>
  </g>
  <g
     transform="translate(0,18)"
     id="g22">
    <g
       id="g20"
       transform="translate(13.362397,13.862798)">
      <path
         id="path18"
         fill="none"
         stroke-width="4"
         stroke="#000000"
         d="M 0.05323064,-0.90383439 C 62.287435,-1.4353461 311.21335,-2.4681185 373.61035,-2.6272247 M -3.3623969,-3.8627983 C 58.535437,-3.9289745 308.90881,1.6887797 371.70367,1.2044707" />
    </g>
  </g>
  <g
     id="g26"
     transform="translate(177.3624,75.862798)">
    <path
       id="path24"
       fill="none"
       stroke-width="4"
       stroke="#000000"
       d="M 23.244991,-0.46491684 C 27.90019,0.57483479 34.996697,5.6991959 38.015147,10.336258 c 3.018451,4.637063 3.277941,11.609275 3.340549,17.0212 0.06261,5.411925 -0.351994,10.933091 -2.964902,15.450351 -2.612907,4.517259 -8.209262,10.087985 -12.712542,11.653204 -4.503281,1.565219 -10.316965,1.020074 -14.307141,-2.26189 C 7.3809346,48.917158 3.7466764,40.833398 1.737194,34.769225 -0.27228836,28.705053 -2.0876854,21.023398 -0.68578335,15.814087 0.71611872,10.604777 4.4343129,5.4900826 10.148606,3.5133611 15.8629,1.5366395 28.487117,2.2002831 33.599978,3.9537581 38.712839,5.7072332 40.916882,13.437309 40.825773,14.034211 M 19.152907,0.38954495 c 4.29196,0.0589789 13.299086,3.64302725 17.359918,6.72508815 4.060833,3.0820609 6.274869,6.0153619 7.005077,11.7672769 0.730208,5.751915 -0.337545,17.46298 -2.623829,22.744214 -2.286283,5.281234 -6.862971,7.531064 -11.093872,8.943188 C 25.5693,51.981437 19.94393,51.470121 15.508669,50.098869 11.073407,48.727616 5.958801,46.829584 3.1886347,42.341796 0.41846835,37.854009 -1.4446558,29.297501 -1.1123293,23.172142 -0.78000269,17.046783 1.8876742,9.5120575 5.182594,5.5896412 8.4775139,1.6672248 15.875749,0.65148611 18.65719,-0.36235584 21.43863,-1.3761978 21.742952,-1.0869114 21.871238,-0.49341057" />
  </g>
  <g
     transform="translate(0,18)"
     id="g32">
    <g
       id="g30"
       transform="translate(198.3624,114.8628)">
      <path
         id="path28"
         fill="none"
         stroke-width="4"
         stroke="#000000"
         d="M 2.7581129,2.4683694 C 3.1084325,19.846937 1.0563929,89.441515 0.4573895,106.84866 M 0.81084999,1.3400303 C 0.88783307,20.303691 -2.7733556,91.837929 -2.0751794,109.85298" />
    </g>
  </g>
  <g
     transform="translate(0,18)"
     id="g38">
    <g
       id="g36"
       transform="translate(199.3624,222.8628)">
      <path
         id="path34"
         fill="none"
         stroke-width="4"
         stroke="#000000"
         d="M -1.3640101,2.6665895 C -8.4371351,9.7832013 -33.691412,35.131856 -39.657382,42.120048 M 3.091003,1.6458557 C -3.4072332,9.2177368 -27.673778,38.890645 -34.69797,45.271692" />
    </g>
  </g>
  <g
     transform="translate(0,18)"
     id="g44">
    <g
       id="g42"
       transform="translate(162.3624,265.8628)">
      <path
         id="path40"
         fill="none"
         stroke-width="4"
         stroke="#000000"
         d="M -1.0508237,0.49066716 C 5.9601307,8.9005774 36.581798,43.134886 43.59433,52.080239 M 3.574205,-1.7112816 C 10.308548,6.8607361 36.822031,44.821987 42.764671,54.667415" />
    </g>
  </g>
  <g
     transform="translate(0,18)"
     id="g50">
    <g
       id="g48"
       transform="translate(200.3624,228.8628)">
      <path
         id="path46"
         fill="none"
         stroke-width="4"
         stroke="#000000"
         d="M -1.0605957,-0.81266802 C 3.4097817,4.970085 21.163517,30.618157 25.702101,36.919512 M 3.5591282,-3.7221416 C 7.7308669,0.98511926 19.819541,26.453319 23.302376,32.408008" />
    </g>
  </g>
  <g
     transform="translate(0,18)"
     id="g56">
    <g
       id="g54"
       transform="translate(226.3624,264.8628)">
      <path
         id="path52"
         fill="none"
         stroke-width="4"
         stroke="#000000"
         d="M 0.39322941,-2.4232193 C -7.3592379,5.9278144 -38.734684,42.852042 -46.418582,52.451735 M -2.8378274,2.4330078 C -10.828954,12.263711 -40.558636,45.373218 -47.798106,54.697723" />
    </g>
  </g>
  <g
     transform="translate(0,18)"
     id="g62">
    <g
       id="g60"
       transform="translate(197.3624,153.8628)">
      <path
         id="path58"
         fill="none"
         stroke-width="4"
         stroke="#000000"
         d="M -1.7351234,-2.5435304 C -9.055159,-7.4486766 -36.508641,-24.349954 -43.755799,-28.18518 M 2.5184282,2.247385 C -5.0769463,-2.3952559 -37.041313,-19.774624 -45.318385,-25.199232" />
    </g>
  </g>
  <g
     transform="translate(0,18)"
     id="g68">
    <g
       id="g66"
       transform="translate(152.3624,126.8628)">
      <path
         id="path64"
         fill="none"
         stroke-width="4"
         stroke="#000000"
         d="M -2.1720983,-0.55854311 C -2.3342631,-18.447372 -2.1863822,-87.95723 -2.4342419,-105.89053 M 1.8442384,-3.3300632 C 1.6733884,-22.116101 -2.1822087,-92.788706 -3.2794107,-109.75606" />
    </g>
  </g>
  <g
     transform="translate(0,18)"
     id="g74">
    <g
       id="g72"
       transform="translate(206.3624,148.8628)">
      <path
         id="path70"
         fill="none"
         stroke-width="4"
         stroke="#000000"
         d="M -1.321375,-0.09185679 C 4.8202888,-4.4375273 29.975951,-22.011409 36.180694,-26.921632 M 3.156783,-2.6100329 C 9.0927923,-7.6485303 29.344439,-26.781821 34.583633,-30.804043" />
    </g>
  </g>
  <g
     transform="translate(0,18)"
     id="g80">
    <g
       id="g78"
       transform="translate(241.3624,120.8628)">
      <path
         id="path76"
         fill="none"
         stroke-width="4"
         stroke="#000000"
         d="M -0.32053499,0.25560643 C 0.90578866,-17.808708 8.1811365,-89.49251 9.5780916,-106.74143 M -3.9390639,-2.0739467 C -3.1438651,-19.871686 6.4924393,-85.982187 8.1967609,-103.51459" />
    </g>
  </g>
</svg>
