<svg version="1.1" xmlns="http://www.w3.org/2000/svg" viewBox="0 0 396.9727421344817 363.7896971242129">
  <!-- svg-source:excalidraw -->
  <defs>
    <style>
      @font-face {
        font-family: "Virgil";
        src: url("https://excalidraw.com/FG_Virgil.woff2");
      }
      @font-face {
        font-family: "Cascadia";
        src: url("https://excalidraw.com/Cascadia.woff2");
      }
    </style>
  </defs>
  <g><g transform="translate(100.36239694222809 20.862798291593776) rotate(0 -3.2303940950333754 161.3183427039534)"><path d="M-1.8035495087504385 -1.538336892426014 C-2.6985374574859935 52.398389693597956, -5.422501592338085 266.99230291495724, -6.060134296119213 321.05739202946427 M2.412856544405222 3.7982549844682225 C1.111365085194508 58.364027424107, -7.175078537712496 271.84390608017645, -8.873644734472037 324.1750223003328" stroke="#000000" stroke-width="4" fill="none"></path></g></g><g><g transform="translate(296.3623969422281 22.862798291593776) rotate(0 -0.8697646139562494 164.60580234080552)"><path d="M-2.4396452382206917 -1.715294151008129 C-2.7180808022618295 53.02159401923418, -1.6594957465926807 275.18081622471414, -2.3639633134007454 330.9268988326192 M1.431451704651117 3.525235214084387 C1.0812124961117902 58.6017331455648, -2.809298089991013 272.21856471046806, -3.170980932563543 326.4194042252004" stroke="#000000" stroke-width="4" fill="none"></path></g></g><g><g transform="translate(13.362396942228088 13.862798291593776) rotate(0 185.12397412501275 -1.3291637791693063)"><path d="M0.05323063880205137 -0.9038343861699103 C62.287434788048266 -1.435346122086048, 311.21334960013627 -2.4681184882918994, 373.6103451922536 -2.6272247269749642 M-3.362396942228079 -3.86279829159379 C58.53543654973308 -3.9289745010435584, 308.90880615924794 1.6887797246873377, 371.70366647616027 1.2044707332551479" stroke="#000000" stroke-width="4" fill="none"></path></g></g><g transform="translate(177.3623969422281 57.862798291593776) rotate(0 21 27)"><path d="M23.244991449099174 -0.46491683816794804 C27.900189529457553 0.574834786573285, 34.996696559740904 5.69919588233162, 38.01514730613755 10.336258406167481 C41.033598052534195 14.973320930003343, 41.2930880737155 21.945533286401606, 41.35569592747903 27.35745830484722 C41.418303781242564 32.769383323292836, 41.00370181427559 38.290549469843924, 38.39079442871872 42.80780851684118 C35.777887043161854 47.32506756383843, 30.18153220553084 52.89579351171245, 25.678251614137853 54.46101258683073 C21.174971022744867 56.02623166194902, 15.361287147881779 55.48108748449539, 11.371110880360796 52.19912296755089 C7.380934612839813 48.917158450606394, 3.746676380167281 40.8333980990053, 1.7371940090119544 34.76922548516373 C-0.27228836214337226 28.70505287132216, -2.087685408237226 21.02339801947754, -0.6857833465711636 15.81408728450146 C0.7161187150948989 10.604776549525381, 4.434312863229359 5.4900826028848435, 10.14860637900833 3.513361075307259 C15.8628998947873 1.5366395477296744, 28.48711672377746 2.200283050285117, 33.59997774810266 3.953758119035953 C38.71283877242786 5.707233187786789, 40.91688201028783 13.43730909485846, 40.82577252495952 14.034211487812273 M19.152906608441494 0.3895449480712756 C23.444867140187846 0.4485238070482828, 32.45199275012362 4.032572235834959, 36.51282526926104 7.114633064830024 C40.573657788398464 10.196693893825088, 42.787693693901765 13.129994805856178, 43.517901723266 18.88190992204166 C44.248109752630235 24.633825038227144, 43.18035686228698 36.34489001544336, 40.89407344544646 41.62612376194293 C38.60779002860594 46.907357508442495, 34.0311020398143 49.157188221368806, 29.80020122222287 50.56931240103905 C25.56930040463144 51.98143658070929, 19.94392963494455 51.47012149861528, 15.508668539897881 50.098868839964396 C11.073407444851213 48.727616181313515, 5.958800951833526 46.82958421747148, 3.188634651942859 42.34179644913377 C0.4184683520521921 37.854008680796056, -1.444655825302786 29.297501445337154, -1.112329259446124 23.172142229938142 C-0.7800026935894622 17.04678301453913, 1.8876742240075166 9.512057502404488, 5.18259404708283 5.589641156739695 C8.477513870158143 1.6672248110749028, 15.875749050792823 0.6514861110853616, 18.657189679005757 -0.3623558440506116 C21.43863030721869 -1.3761977991865848, 21.74295235694149 -1.0869113713548253, 21.871237816360434 -0.49341057407614386" stroke="#000000" stroke-width="4" fill="none"></path></g><g><g transform="translate(198.3623969422281 114.86279829159378) rotate(0 0.3165222650927717 55.59650602564221)"><path d="M2.7581129118800165 2.468369360268116 C3.10843253582716 19.846936912834643, 1.0563928966720901 89.4415152584513, 0.45738950222730645 106.84866201430559 M0.8108499933779241 1.3400303457677367 C0.8878330748776596 20.303690752834083, -2.7733556118110814 91.83792893394829, -2.075179445594549 109.85298170551658" stroke="#000000" stroke-width="4" fill="none"></path></g></g><g><g transform="translate(199.3623969422281 222.86279829159378) rotate(0 -18.283189431503388 23.458773672431732)"><path d="M-1.3640101388096808 2.666589517891407 C-8.437135135630767 9.783201300601165, -33.6914117132624 35.13185577740272, -39.65738186389208 42.12004806548357 M3.091003000885248 1.6458557318151001 C-3.4072332372764746 9.217736760626238, -27.673777962376672 38.89064478223523, -34.6979695533216 45.27169161304832" stroke="#000000" stroke-width="4" fill="none"></path></g></g><g><g transform="translate(162.3623969422281 265.8627982915938) rotate(0 21.271752925217186 26.478066693395363)"><path d="M-1.0508236691355703 0.4906671568751335 C5.960130663216114 8.900577438374361, 36.58179793705543 43.13488626927137, 43.594329519569875 52.08023915737867 M3.574204982668162 -1.7112816251814364 C10.308548280944427 6.860736135095358, 36.8220312123994 44.82198706492782, 42.76467086687684 54.66741501197219" stroke="#000000" stroke-width="4" fill="none"></path></g></g><g><g transform="translate(200.3623969422281 228.86279829159378) rotate(0 12.32075269669292 16.598685269430234)"><path d="M-1.0605956509709358 -0.8126680180430412 C3.4097816511988643 4.970085020363331, 21.16351746370395 30.618157120049, 25.702101044356823 36.91951214820146 M3.559128210693598 -3.7221416093409063 C7.7308669481178125 0.9851192615926259, 19.81954133922855 26.45331923469901, 23.302375505119564 32.408007626384496" stroke="#000000" stroke-width="4" fill="none"></path></g></g><g><g transform="translate(226.3623969422281 264.8627982915938) rotate(0 -23.702438373938207 26.13725162900988)"><path d="M0.39322940856218347 -2.423219294846058 C-7.359237889945506 5.927814440429211, -38.73468365321557 42.85204229801894, -46.4185815140605 52.45173478573561 M-2.8378274117410185 2.433007849305868 C-10.828953677266837 12.263711319218078, -40.55863562211395 45.37321827118595, -47.79810615643859 54.69772255286574" stroke="#000000" stroke-width="4" fill="none"></path></g></g><g><g transform="translate(197.3623969422281 153.86279829159378) rotate(0 -21.399978370517488 -12.968897437974817)"><path d="M-1.7351234391331671 -2.543530397117138 C-9.055159039795399 -7.448676630357901, -36.50864114314318 -24.349953997631868, -43.755799241364 -28.185179881751537 M2.51842819467187 2.2473850058019167 C-5.0769463084638105 -2.3952558566629882, -37.04131289228797 -19.77462363258004, -45.31838493570685 -25.199231505542993" stroke="#000000" stroke-width="4" fill="none"></path></g></g><g><g transform="translate(152.3623969422281 126.86279829159378) rotate(0 -0.7175861917435782 -55.157301622256654)"><path d="M-2.172098331153393 -0.5585431054234506 C-2.334263098736604 -18.44737244794766, -2.186382242540519 -87.95722967336575, -2.434241895377636 -105.89053177386522 M1.8442383612692357 -3.3300631727278236 C1.6733883815507096 -22.116100832372904, -2.1822086837391064 -92.78870610371231, -3.2794107447564604 -109.75606013908983" stroke="#000000" stroke-width="4" fill="none"></path></g></g><g><g transform="translate(206.3623969422281 148.86279829159378) rotate(0 17.429659490287293 -15.447949983999138)"><path d="M-1.3213749840855598 -0.09185679405927649 C4.820288837452729 -4.4375273192922275, 29.975950817763803 -22.01140905668338, 36.180693964660165 -26.921631889045237 M3.156782953888178 -2.610032863765955 C9.092792321195205 -7.648530252923568, 29.344438514063754 -26.78182096178333, 34.58363315358758 -30.80404317393899" stroke="#000000" stroke-width="4" fill="none"></path></g></g><g><g transform="translate(241.3623969422281 120.86279829159378) rotate(0 2.819513834640361 -53.242911486327614)"><path d="M-0.3205349877476693 0.25560643225908297 C0.9057886645197866 -17.80870829870304, 8.181136517226694 -89.49251028349002, 9.578091578185557 -106.74142940491438 M-3.939063908904791 -2.0739467431604863 C-3.1438650884727637 -19.871685668776433, 6.492439307520787 -85.98218666409453, 8.196760900169611 -103.51458791270852" stroke="#000000" stroke-width="4" fill="none"></path></g></g></svg>